<svg width="68" height="68" viewBox="0 0 68 68" fill="none" xmlns="http://www.w3.org/2000/svg">
<g clip-path="url(#clip0_887709_1928)">
<path fill-rule="evenodd" clip-rule="evenodd" d="M7.5542 34.0014C7.55295 29.779 8.56277 25.6177 10.4992 21.8656C12.4357 18.1135 15.2424 14.8796 18.6847 12.4344C22.127 9.98929 26.1048 8.40396 30.2853 7.81106C34.4658 7.21815 38.7275 7.63491 42.714 9.02648C43.6603 9.35611 44.6988 9.29632 45.6011 8.86026C46.5033 8.42419 47.1953 7.64758 47.525 6.70125C47.8546 5.75493 47.7948 4.71642 47.3588 3.81418C46.9227 2.91195 46.1461 2.21989 45.1998 1.89025C38.2386 -0.53832 30.6767 -0.638394 23.6537 1.60511C16.6307 3.84862 10.5273 8.31414 6.26331 14.3286C1.99932 20.3431 -0.194154 27.5806 0.0134949 34.9503C0.221144 42.32 2.81866 49.4225 7.41454 55.1873C12.0104 60.9522 18.3556 65.0669 25.4938 66.9114C32.6319 68.7559 40.1762 68.2302 46.9896 65.4135C53.803 62.5969 59.5161 57.6418 63.2681 51.2953C67.02 44.9488 68.6073 37.5546 67.7909 30.2274C67.7363 29.7342 67.5851 29.2567 67.346 28.822C67.1069 28.3873 66.7845 28.0039 66.3972 27.6938C66.0099 27.3837 65.5653 27.1529 65.0889 27.0146C64.6124 26.8763 64.1133 26.8332 63.6202 26.8878C63.1271 26.9424 62.6495 27.0935 62.2148 27.3327C61.7801 27.5718 61.3968 27.8942 61.0867 28.2815C60.7765 28.6688 60.5458 29.1133 60.4075 29.5898C60.2692 30.0663 60.2261 30.5653 60.2807 31.0585C60.6786 34.6319 60.3436 38.2488 59.2962 41.6884C58.2489 45.1279 56.5111 48.3177 54.1891 51.0629C51.8672 53.8081 49.0098 56.0509 45.7917 57.6543C42.5735 59.2577 39.0622 60.188 35.4723 60.3884C31.8825 60.5888 28.2894 60.055 24.9128 58.8196C21.5362 57.5843 18.447 55.6734 15.834 53.2037C13.221 50.734 11.1391 47.7573 9.71543 44.4557C8.29181 41.1541 7.55642 37.5968 7.5542 34.0014ZM63.2764 13.8356C63.9397 13.0841 64.2773 12.1 64.215 11.0996C64.1526 10.0993 63.6954 9.16464 62.944 8.50137C62.1925 7.83809 61.2084 7.50049 60.208 7.56283C59.2077 7.62518 58.273 8.08236 57.6098 8.83381L33.2998 36.336L21.2751 26.5403C20.8906 26.2267 20.4481 25.992 19.9729 25.8494C19.4977 25.7069 18.9991 25.6594 18.5055 25.7095C17.5087 25.8108 16.593 26.304 15.9598 27.0805C15.6462 27.465 15.4115 27.9074 15.2689 28.3826C15.1264 28.8578 15.0789 29.3565 15.129 29.85C15.2303 30.8468 15.7235 31.7626 16.5 32.3958L31.3429 44.4847C32.099 45.0999 33.0638 45.399 34.0354 45.3195C35.007 45.2399 35.9102 44.7879 36.5562 44.0578L63.2764 13.8356Z" fill="#57B957"/>
</g>
<defs>
<clipPath id="clip0_887709_1928">
<rect width="68" height="68" fill="white"/>
</clipPath>
</defs>
</svg>
