<svg width="17" height="18" viewBox="0 0 17 18" fill="none" xmlns="http://www.w3.org/2000/svg">
<g clip-path="url(#clip0_887730_1168)">
<path d="M15.963 13.6372C15.963 13.9009 15.9044 14.172 15.7799 14.4357C15.6554 14.6995 15.4942 14.9486 15.2817 15.183C14.9228 15.5786 14.5271 15.8643 14.0803 16.0475C13.6407 16.2306 13.1645 16.3258 12.6517 16.3258C11.9044 16.3258 11.1059 16.15 10.2634 15.791C9.42092 15.4321 8.57843 14.9486 7.74326 14.3405C6.90077 13.7251 6.10224 13.0438 5.34033 12.2892C4.58575 11.5273 3.90444 10.7288 3.29638 9.89361C2.69564 9.05844 2.21213 8.22328 1.86048 7.39544C1.50883 6.56027 1.33301 5.76174 1.33301 4.99983C1.33301 4.50167 1.42092 4.02548 1.59674 3.58592C1.77257 3.13903 2.05096 2.72877 2.43923 2.36247C2.9081 1.90093 3.42092 1.67383 3.96304 1.67383C4.16817 1.67383 4.3733 1.71778 4.55645 1.8057C4.74693 1.89361 4.91543 2.02548 5.04729 2.21595L6.74693 4.61156C6.8788 4.79471 6.97403 4.9632 7.03997 5.12438C7.1059 5.27822 7.14253 5.43207 7.14253 5.57126C7.14253 5.74709 7.09125 5.92291 6.98869 6.09141C6.89345 6.25991 6.75425 6.43573 6.57843 6.61156L6.02165 7.19031C5.94107 7.2709 5.90444 7.36614 5.90444 7.48335C5.90444 7.54196 5.91176 7.59324 5.92641 7.65185C5.94839 7.71046 5.97037 7.75441 5.98502 7.79837C6.11689 8.04013 6.344 8.35515 6.66634 8.7361C6.99601 9.11705 7.34766 9.50533 7.72861 9.89361C8.12422 10.2819 8.50517 10.6409 8.89345 10.9705C9.2744 11.2929 9.58942 11.5127 9.8385 11.6445C9.87513 11.6592 9.91909 11.6812 9.97037 11.7031C10.029 11.7251 10.0876 11.7324 10.1535 11.7324C10.2781 11.7324 10.3733 11.6885 10.4539 11.6079L11.0107 11.0584C11.1938 10.8753 11.3696 10.7361 11.5381 10.6482C11.7066 10.5456 11.8751 10.4943 12.0583 10.4943C12.1975 10.4943 12.344 10.5236 12.5052 10.5896C12.6663 10.6555 12.8348 10.7508 13.018 10.8753L15.4429 12.5969C15.6334 12.7288 15.7652 12.8826 15.8458 13.0658C15.9191 13.2489 15.963 13.4321 15.963 13.6372Z" stroke="#E7E3E7" stroke-width="1.0989" stroke-miterlimit="10"/>
</g>
<defs>
<clipPath id="clip0_887730_1168">
<rect width="16.63" height="16.652" fill="white" transform="translate(0.333008 0.673828)"/>
</clipPath>
</defs>
</svg>
